<?xml version="1.0" standalone="no"?>
<!DOCTYPE svg PUBLIC "-//W3C//DTD SVG 20010904//EN"
 "http://www.w3.org/TR/2001/REC-SVG-20010904/DTD/svg10.dtd">
<svg version="1.0" xmlns="http://www.w3.org/2000/svg"
 width="138.000000pt" height="138.000000pt" viewBox="0 0 138.000000 138.000000"
 preserveAspectRatio="xMidYMid meet">
<metadata>
Created by potrace 1.11, written by Peter Selinger 2001-2013
</metadata>
<g transform="translate(0.000000,138.000000) scale(0.100000,-0.100000)"
fill="#000000" stroke="none">
<path d="M638 1366 c-10 -7 -15 -16 -12 -19 3 -3 -1 -16 -10 -29 -9 -12 -16
-19 -16 -14 0 5 -7 3 -15 -4 -11 -9 -15 -9 -15 -1 0 7 -5 9 -12 5 -8 -5 -9 -2
-5 10 5 11 3 15 -5 10 -6 -4 -29 -8 -51 -10 -26 -2 -44 -10 -51 -21 -12 -22
-15 -54 -4 -47 13 8 9 -6 -6 -22 -8 -8 -22 -14 -31 -14 -8 0 -18 -6 -21 -14
-5 -12 -22 -14 -44 -6 -3 1 -8 2 -12 1 -5 0 -8 4 -8 9 0 7 -7 7 -21 -1 -16 -8
-20 -8 -14 1 6 9 3 9 -12 1 -11 -6 -24 -7 -28 -3 -3 4 -5 2 -4 -3 2 -6 -3 -21
-10 -34 -10 -18 -10 -22 0 -16 9 6 10 3 6 -9 -5 -14 -3 -17 8 -12 8 3 15 1 15
-4 0 -5 7 -7 15 -4 8 4 15 1 15 -5 0 -15 -39 -34 -56 -27 -8 3 -17 -1 -20 -9
-4 -8 -11 -12 -18 -8 -6 3 -8 3 -4 -2 4 -4 3 -14 -4 -22 -6 -8 -7 -13 -2 -12
21 4 28 -2 14 -11 -13 -9 -13 -10 1 -10 22 0 20 -48 -3 -56 -23 -7 -23 -16 0
-35 12 -10 34 -14 69 -12 43 2 51 0 47 -12 -4 -9 0 -15 7 -15 12 0 12 -2 0 -9
-7 -5 -10 -14 -7 -20 4 -6 3 -11 -2 -11 -5 0 -17 -12 -27 -26 -11 -18 -12 -24
-4 -18 12 6 12 5 0 -9 -9 -11 -10 -17 -2 -17 6 0 10 -3 9 -7 -4 -16 14 -53 23
-47 5 3 23 -1 39 -10 20 -9 28 -10 24 -3 -5 8 -3 8 7 0 7 -7 21 -13 31 -13 10
0 18 -4 18 -9 0 -5 12 -11 27 -14 20 -4 33 2 56 27 16 17 26 24 21 16 -7 -13
-5 -13 9 -2 19 16 61 7 51 -11 -5 -9 -4 -9 6 0 7 6 19 9 28 6 10 -4 13 -2 8 5
-4 8 -2 10 8 6 9 -3 16 1 18 12 3 17 4 17 20 0 10 -10 23 -14 30 -10 9 6 9 3
-1 -9 -7 -9 -10 -17 -6 -17 4 0 3 -6 -4 -13 -6 -8 -9 -23 -6 -35 2 -13 -1 -22
-8 -23 -7 0 -3 -4 8 -9 18 -8 18 -9 -5 -9 -20 -1 -22 -3 -10 -11 13 -9 13 -10
0 -10 -11 0 -12 -2 -3 -8 13 -8 12 -29 -1 -51 -7 -10 -6 -12 4 -6 8 5 11 3 8
-6 -3 -8 -1 -23 5 -34 9 -18 8 -18 -6 -7 -13 11 -15 10 -13 -4 4 -24 30 -26
44 -3 8 13 9 19 1 19 -5 0 -7 5 -3 12 12 19 13 79 1 71 -6 -3 -7 -1 -3 6 14
21 17 63 5 56 -6 -4 -3 5 7 19 13 20 19 24 25 14 5 -7 9 -9 9 -4 0 6 6 1 14
-9 12 -17 12 -21 -2 -31 -11 -8 -12 -13 -4 -18 7 -4 12 -12 12 -17 0 -6 -3 -8
-7 -6 -5 3 -9 -6 -9 -19 -1 -15 2 -22 10 -17 6 3 3 -3 -7 -15 -11 -11 -16 -25
-13 -31 3 -5 0 -12 -6 -14 -10 -4 -10 -6 0 -6 6 -1 12 -6 12 -12 0 -5 -5 -7
-10 -4 -6 4 -9 1 -8 -7 2 -8 -7 -13 -24 -13 -33 0 -56 -19 -37 -30 8 -6 10 -4
4 6 -5 8 -4 11 0 6 5 -4 9 -18 10 -31 0 -21 -2 -23 -14 -13 -12 10 -13 9 -3
-9 8 -16 8 -24 -1 -34 -9 -10 -9 -11 1 -6 13 8 17 -6 5 -18 -12 -12 -14 -56
-3 -56 6 0 8 5 5 10 -3 6 -1 10 4 10 6 0 12 -7 12 -15 1 -8 2 -21 3 -27 1 -7
-1 -21 -6 -30 -6 -12 -3 -20 13 -28 14 -8 17 -15 10 -24 -12 -14 -11 -56 1
-56 4 0 8 -5 8 -11 0 -5 -6 -7 -12 -3 -9 6 -9 3 0 -9 8 -9 11 -21 7 -27 -3 -5
0 -10 9 -10 8 0 17 -6 19 -12 3 -8 6 -5 6 5 1 11 6 15 13 11 7 -4 8 -3 4 5 -4
6 -10 9 -14 7 -4 -2 -8 7 -8 20 -1 14 2 21 8 18 6 -4 5 3 -1 15 -7 12 -9 26
-6 31 3 5 1 11 -4 14 -5 4 -8 21 -6 39 3 23 2 28 -5 17 -5 -8 -10 -10 -10 -5
0 6 5 16 12 23 9 9 9 12 0 12 -7 0 -12 13 -12 30 0 17 -4 30 -10 30 -5 0 -10
5 -10 11 0 5 5 7 11 3 8 -5 10 1 7 19 -3 15 -1 24 3 21 5 -3 10 0 10 5 1 6 3
16 4 21 1 6 3 17 4 26 1 9 6 12 14 8 9 -6 9 -5 0 7 -10 12 -8 17 8 27 10 7 19
18 19 25 0 8 -4 7 -10 -3 -11 -17 -14 -1 -4 24 3 8 13 12 22 9 14 -4 14 -3 3
5 -8 6 -11 17 -7 28 4 10 1 21 -6 26 -9 5 -8 8 6 8 16 0 17 2 5 17 -8 9 -9 14
-3 10 7 -4 15 0 18 9 9 24 7 46 -4 39 -6 -3 -5 6 2 22 7 15 18 32 25 36 8 5
11 12 8 18 -4 5 -1 9 5 9 6 0 0 11 -14 23 -19 18 -23 26 -14 35 9 9 9 12 -2
12 -13 0 -13 2 0 10 12 8 12 10 1 10 -17 0 -5 15 12 15 14 1 37 -20 37 -33 0
-13 43 -9 59 6 22 21 45 -8 50 -61 1 -5 5 -6 10 -2 5 3 12 1 16 -5 9 -15 22
-12 22 5 0 8 -4 15 -9 15 -13 0 -9 13 13 40 11 14 17 18 13 10 -6 -12 -5 -13
7 -4 8 6 27 11 42 10 36 -2 41 6 19 30 -21 24 -26 50 -11 60 8 5 9 3 4 -6 -6
-9 -4 -11 4 -6 7 5 10 10 7 13 -3 3 -1 14 5 25 6 11 13 18 15 15 3 -3 17 6 32
20 20 19 23 26 13 33 -8 4 -11 15 -8 25 4 9 3 14 -2 11 -5 -3 -11 1 -15 9 -3
8 -12 15 -21 15 -8 0 -15 5 -15 11 0 8 -5 8 -15 -1 -11 -9 -15 -9 -15 -1 0 8
-6 9 -18 2 -12 -6 -25 -5 -42 5 -22 12 -16 19 12 16 12 -2 17 27 6 34 -7 5 -8
2 -3 -6 5 -8 4 -11 -3 -7 -16 11 -8 40 14 48 10 4 13 8 6 8 -6 1 -11 6 -10 13
2 7 -9 13 -26 13 -16 0 -31 6 -34 13 -2 7 -8 10 -13 6 -5 -3 -9 0 -9 6 0 6 -4
8 -10 5 -5 -3 -10 3 -10 15 0 12 -4 18 -10 15 -5 -3 -10 1 -10 9 0 9 -7 16
-15 16 -7 0 -19 8 -24 18 -9 15 -12 15 -21 2 -9 -13 -12 -13 -23 1 -17 22 -55
41 -67 34 -6 -4 -9 -1 -8 5 2 7 -4 14 -12 15 -35 7 -45 11 -52 20 -5 6 -8 3
-8 -7 0 -11 -5 -15 -15 -12 -8 4 -12 10 -9 15 3 5 -3 6 -12 2 -12 -4 -15 -3
-10 5 9 15 5 15 -16 -2z"/>
<path d="M588 381 c-8 -12 -17 -19 -20 -16 -2 3 -5 -1 -5 -8 0 -7 8 -13 18
-13 10 0 15 4 12 9 -2 4 1 15 8 23 6 8 9 17 6 20 -3 3 -11 -4 -19 -15z"/>
<path d="M613 381 c-11 -17 -10 -20 6 -18 12 1 17 7 13 19 -5 22 -5 22 -19 -1z"/>
</g>
</svg>
